<svg width="14" height="14" viewBox="0 0 14 14" fill="none" xmlns="http://www.w3.org/2000/svg">
<path d="M3.88641 9.44767C2.45268 8.01116 1.35008 6.27877 0.655739 4.37167C0.273739 3.32901 0.623739 2.18367 1.40907 1.39834L1.89507 0.913007C2.02573 0.782085 2.18093 0.678217 2.35178 0.607348C2.52263 0.536479 2.70577 0.5 2.89074 0.5C3.0757 0.5 3.25885 0.536479 3.4297 0.607348C3.60055 0.678217 3.75575 0.782085 3.88641 0.913007L5.02441 2.05101C5.15533 2.18167 5.2592 2.33686 5.33006 2.50771C5.40093 2.67856 5.43741 2.86171 5.43741 3.04667C5.43741 3.23164 5.40093 3.41479 5.33006 3.58564C5.2592 3.75649 5.15533 3.91168 5.02441 4.04234L4.74441 4.32234C4.63233 4.43439 4.54342 4.56743 4.48277 4.71384C4.42211 4.86026 4.39089 5.01719 4.39089 5.17567C4.39089 5.33416 4.42211 5.49109 4.48277 5.6375C4.54342 5.78392 4.63233 5.91695 4.74441 6.02901L7.30441 8.58967C7.41646 8.70175 7.54949 8.79066 7.69591 8.85131C7.84232 8.91197 7.99926 8.94319 8.15774 8.94319C8.31622 8.94319 8.47315 8.91197 8.61957 8.85131C8.76599 8.79066 8.89902 8.70175 9.01107 8.58967L9.29174 8.30967C9.4224 8.17875 9.57759 8.07488 9.74844 8.00401C9.91929 7.93315 10.1024 7.89667 10.2874 7.89667C10.4724 7.89667 10.6555 7.93315 10.8264 8.00401C10.9972 8.07488 11.1524 8.17875 11.2831 8.30967L12.4211 9.44767C12.552 9.57833 12.6559 9.73353 12.7267 9.90438C12.7976 10.0752 12.8341 10.2584 12.8341 10.4433C12.8341 10.6283 12.7976 10.8115 12.7267 10.9823C12.6559 11.1532 12.552 11.3083 12.4211 11.439L11.9357 11.9243C11.1504 12.7103 10.0051 13.0603 8.96241 12.6783C7.05531 11.984 5.32292 10.8814 3.88641 9.44767Z" stroke="black" stroke-linejoin="round"/>
</svg>
