<svg width="7" height="12" viewBox="0 0 7 12" fill="none" xmlns="http://www.w3.org/2000/svg">
<path d="M6.37329 0.225645C6.30195 0.154119 6.21719 0.0973705 6.12388 0.0586506C6.03057 0.0199307 5.93053 0 5.82951 0C5.72848 0 5.62845 0.0199307 5.53514 0.0586506C5.44183 0.0973705 5.35707 0.154119 5.28572 0.225645L0.179691 5.33168C0.12273 5.38852 0.0775387 5.45604 0.0467049 5.53038C0.0158712 5.60471 0 5.68439 0 5.76486C0 5.84533 0.0158712 5.92502 0.0467049 5.99935C0.0775387 6.07368 0.12273 6.1412 0.179691 6.19805L5.28572 11.3041C5.5868 11.6052 6.07221 11.6052 6.37329 11.3041C6.67437 11.003 6.67437 10.5176 6.37329 10.2165L1.92471 5.76179L6.37943 1.30707C6.67437 1.01213 6.67437 0.520579 6.37329 0.225645Z" fill="rgba(0, 0, 0, 0.6)"/>
</svg>
