<svg width="7" height="12" viewBox="0 0 7 12" fill="none" xmlns="http://www.w3.org/2000/svg">
<path d="M0.226582 11.3042C0.52766 11.6053 1.01307 11.6053 1.31415 11.3042L6.42018 6.19821C6.47714 6.14136 6.52233 6.07384 6.55317 5.99951C6.584 5.92518 6.59987 5.8455 6.59987 5.76502C6.59987 5.68455 6.584 5.60487 6.55317 5.53054C6.52233 5.45621 6.47714 5.38869 6.42018 5.33184L1.31415 0.225808C1.01307 -0.0752694 0.52766 -0.0752694 0.226582 0.225808C-0.0744954 0.526886 -0.0744954 1.0123 0.226582 1.31337L4.67516 5.7681L0.220438 10.2228C-0.0744955 10.5178 -0.0744954 11.0093 0.226582 11.3042Z" fill="rgba(0, 0, 0, 0.6)"/>
</svg>
