<svg width="14" height="12" viewBox="0 0 14 12" fill="none" xmlns="http://www.w3.org/2000/svg">
<path d="M6.76875 3.75L8.75 5.725V5.625C8.75 5.12772 8.55246 4.65081 8.20083 4.29917C7.84919 3.94754 7.37228 3.75 6.875 3.75H6.76875ZM4.08125 4.25L5.05 5.21875C5.01875 5.35 5 5.48125 5 5.625C5 6.12228 5.19754 6.59919 5.54917 6.95083C5.90081 7.30246 6.37772 7.5 6.875 7.5C7.0125 7.5 7.15 7.48125 7.28125 7.45L8.25 8.41875C7.83125 8.625 7.36875 8.75 6.875 8.75C6.0462 8.75 5.25134 8.42076 4.66529 7.83471C4.07924 7.24866 3.75 6.4538 3.75 5.625C3.75 5.13125 3.875 4.66875 4.08125 4.25ZM0.625 0.79375L2.05 2.21875L2.33125 2.5C1.3 3.3125 0.4875 4.375 0 5.625C1.08125 8.36875 3.75 10.3125 6.875 10.3125C7.84375 10.3125 8.76875 10.125 9.6125 9.7875L9.88125 10.05L11.7062 11.875L12.5 11.0812L1.41875 0M6.875 2.5C7.7038 2.5 8.49866 2.82924 9.08471 3.41529C9.67076 4.00134 10 4.7962 10 5.625C10 6.025 9.91875 6.4125 9.775 6.7625L11.6062 8.59375C12.5437 7.8125 13.2937 6.7875 13.75 5.625C12.6687 2.88125 10 0.9375 6.875 0.9375C6 0.9375 5.1625 1.09375 4.375 1.375L5.73125 2.71875C6.0875 2.58125 6.46875 2.5 6.875 2.5Z" fill="black"/>
</svg>
