<svg width="17" height="17" viewBox="0 0 17 17" fill="none" xmlns="http://www.w3.org/2000/svg">
<g opacity="0.9">
<path d="M8.5 15.9375C4.39875 15.9375 1.0625 12.6012 1.0625 8.5C1.0625 4.39875 4.39875 1.0625 8.5 1.0625C12.6012 1.0625 15.9375 4.39875 15.9375 8.5C15.9375 12.6012 12.6012 15.9375 8.5 15.9375ZM8.5 2.125C4.98312 2.125 2.125 4.98312 2.125 8.5C2.125 12.0169 4.98312 14.875 8.5 14.875C12.0169 14.875 14.875 12.0169 14.875 8.5C14.875 4.98312 12.0169 2.125 8.5 2.125Z" fill="black"/>
<path d="M8.5 12.2188C8.2025 12.2188 7.96875 11.985 7.96875 11.6875V5.3125C7.96875 5.015 8.2025 4.78125 8.5 4.78125C8.7975 4.78125 9.03125 5.015 9.03125 5.3125V11.6875C9.03125 11.985 8.7975 12.2188 8.5 12.2188Z" fill="black"/>
<path d="M11.6875 9.03125H5.3125C5.015 9.03125 4.78125 8.7975 4.78125 8.5C4.78125 8.2025 5.015 7.96875 5.3125 7.96875H11.6875C11.985 7.96875 12.2188 8.2025 12.2188 8.5C12.2188 8.7975 11.985 9.03125 11.6875 9.03125Z" fill="black"/>
</g>
</svg>
