<svg width="22" height="22" viewBox="0 0 22 22" fill="none" xmlns="http://www.w3.org/2000/svg">
<path fill-rule="evenodd" clip-rule="evenodd" d="M8.66452 0.792619C9.25316 0.28146 10.0066 0 10.7862 0C11.5658 0 12.3192 0.28146 12.9078 0.792619L20.4581 7.34629C20.808 7.65014 21.0886 8.02561 21.2808 8.44729C21.473 8.86896 21.5725 9.32701 21.5723 9.79043V18.1767C21.5723 19.0349 21.2314 19.8579 20.6246 20.4648C20.0177 21.0716 19.1947 21.4125 18.3365 21.4125H14.5613C14.1322 21.4125 13.7207 21.2421 13.4173 20.9386C13.1139 20.6352 12.9434 20.2237 12.9434 19.7946V12.446H8.62893V19.7946C8.62893 20.2237 8.45847 20.6352 8.15505 20.9386C7.85163 21.2421 7.4401 21.4125 7.011 21.4125H3.23585C2.37765 21.4125 1.5546 21.0716 0.947758 20.4648C0.340919 19.8579 1.29432e-07 19.0349 1.29432e-07 18.1767V9.79043C-0.000130937 9.32701 0.0992813 8.86896 0.291511 8.44729C0.48374 8.02561 0.764301 7.65014 1.11421 7.34629L8.66452 0.792619ZM11.4937 2.42133C11.2975 2.25075 11.0462 2.15681 10.7862 2.15681C10.5261 2.15681 10.2748 2.25075 10.0786 2.42133L2.52828 8.97608C2.41175 9.07736 2.31833 9.20247 2.25431 9.34296C2.1903 9.48345 2.1572 9.63605 2.15723 9.79043V18.1767C2.15723 18.4627 2.27087 18.7371 2.47315 18.9394C2.67543 19.1417 2.94978 19.2553 3.23585 19.2553H6.4717V12.446C6.4717 11.8739 6.69898 11.3252 7.10354 10.9206C7.50809 10.516 8.0568 10.2888 8.62893 10.2888H12.9434C13.5155 10.2888 14.0642 10.516 14.4688 10.9206C14.8733 11.3252 15.1006 11.8739 15.1006 12.446V19.2553H18.3365C18.6225 19.2553 18.8969 19.1417 19.0992 18.9394C19.3014 18.7371 19.4151 18.4627 19.4151 18.1767V9.79043C19.415 9.63597 19.3817 9.48332 19.3175 9.34282C19.2533 9.20232 19.1597 9.07726 19.043 8.97608L11.4937 2.42133Z" fill="black"/>
</svg>
