<svg width="14" height="12" viewBox="0 0 14 12" fill="none" xmlns="http://www.w3.org/2000/svg">
<path d="M11.5 0.5H2.5C1.96957 0.5 1.46086 0.710714 1.08579 1.08579C0.710714 1.46086 0.5 1.96957 0.5 2.5V7.5C0.5 8.03043 0.710714 8.53914 1.08579 8.91421C1.46086 9.28929 1.96957 9.5 2.5 9.5H8L11 11.5V9.5H11.5C12.0304 9.5 12.5391 9.28929 12.9142 8.91421C13.2893 8.53914 13.5 8.03043 13.5 7.5V2.5C13.5 1.96957 13.2893 1.46086 12.9142 1.08579C12.5391 0.710714 12.0304 0.5 11.5 0.5Z" stroke="black" stroke-linecap="round" stroke-linejoin="round"/>
<path d="M4 5.5C4 5.63261 3.94732 5.75979 3.85355 5.85355C3.75979 5.94732 3.63261 6 3.5 6C3.36739 6 3.24021 5.94732 3.14645 5.85355C3.05268 5.75979 3 5.63261 3 5.5C3 5.36739 3.05268 5.24021 3.14645 5.14645C3.24021 5.05268 3.36739 5 3.5 5C3.63261 5 3.75979 5.05268 3.85355 5.14645C3.94732 5.24021 4 5.36739 4 5.5ZM7 5.5C7 5.63261 6.94732 5.75979 6.85355 5.85355C6.75978 5.94732 6.63261 6 6.5 6C6.36739 6 6.24021 5.94732 6.14645 5.85355C6.05268 5.75979 6 5.63261 6 5.5C6 5.36739 6.05268 5.24021 6.14645 5.14645C6.24021 5.05268 6.36739 5 6.5 5C6.63261 5 6.75978 5.05268 6.85355 5.14645C6.94732 5.24021 7 5.36739 7 5.5ZM10 5.5C10 5.63261 9.94732 5.75979 9.85355 5.85355C9.75979 5.94732 9.63261 6 9.5 6C9.36739 6 9.24021 5.94732 9.14645 5.85355C9.05268 5.75979 9 5.63261 9 5.5C9 5.36739 9.05268 5.24021 9.14645 5.14645C9.24021 5.05268 9.36739 5 9.5 5C9.63261 5 9.75979 5.05268 9.85355 5.14645C9.94732 5.24021 10 5.36739 10 5.5Z" stroke="black" stroke-linecap="round" stroke-linejoin="round"/>
</svg>
