<svg width="12" height="14" viewBox="0 0 12 14" fill="none" xmlns="http://www.w3.org/2000/svg">
<path d="M6.49133 1.92586L9.43133 4.85786M0.5 12.8332H11.4467M0.736 9.82319L1.06467 7.53986C1.08235 7.39069 1.15141 7.25232 1.26 7.14852L7.70333 0.705859C7.78616 0.621405 7.8894 0.559781 8.00305 0.52696C8.1167 0.494139 8.2369 0.491234 8.352 0.518526C8.94647 0.676339 9.48699 0.992452 9.916 1.43319C10.3597 1.86124 10.6786 2.40185 10.8387 2.99719C10.8634 3.11243 10.8591 3.23199 10.8263 3.34518C10.7935 3.45838 10.7331 3.56168 10.6507 3.64586L4.208 10.0885C4.09692 10.1911 3.95841 10.2592 3.80933 10.2845L1.518 10.6125C1.41127 10.6269 1.30265 10.6164 1.20068 10.5817C1.09872 10.547 1.0062 10.4891 0.930399 10.4126C0.854599 10.3361 0.79759 10.2431 0.763857 10.1408C0.730124 10.0385 0.720588 9.92978 0.736 9.82319Z" stroke="black" stroke-linecap="round" stroke-linejoin="round"/>
</svg>
