<svg width="23" height="23" viewBox="0 0 23 23" fill="none" xmlns="http://www.w3.org/2000/svg">
<path d="M20.9444 12.8889H12.8889V20.9444C12.8889 21.3717 12.7191 21.7815 12.417 22.0837C12.1149 22.3858 11.7051 22.5556 11.2778 22.5556C10.8505 22.5556 10.4407 22.3858 10.1385 22.0837C9.83641 21.7815 9.66667 21.3717 9.66667 20.9444V12.8889H1.61111C1.18382 12.8889 0.774026 12.7191 0.471884 12.417C0.169742 12.1149 0 11.7051 0 11.2778C0 10.8505 0.169742 10.4407 0.471884 10.1385C0.774026 9.83641 1.18382 9.66667 1.61111 9.66667H9.66667V1.61111C9.66667 1.18382 9.83641 0.774025 10.1385 0.471883C10.4407 0.169741 10.8505 0 11.2778 0C11.7051 0 12.1149 0.169741 12.417 0.471883C12.7191 0.774025 12.8889 1.18382 12.8889 1.61111V9.66667H20.9444C21.3717 9.66667 21.7815 9.83641 22.0837 10.1385C22.3858 10.4407 22.5556 10.8505 22.5556 11.2778C22.5556 11.7051 22.3858 12.1149 22.0837 12.417C21.7815 12.7191 21.3717 12.8889 20.9444 12.8889Z" fill="white"/>
</svg>
