<svg width="26" height="26" viewBox="0 0 26 26" fill="none" xmlns="http://www.w3.org/2000/svg">
<path fill-rule="evenodd" clip-rule="evenodd" d="M12.9434 2.15723C14.3598 2.15722 15.7624 2.43621 17.0711 2.97826C18.3797 3.52031 19.5688 4.31481 20.5704 5.3164C21.5719 6.31798 22.3665 7.50704 22.9085 8.81568C23.4506 10.1243 23.7296 11.5269 23.7296 12.9434C23.7296 18.9004 18.9004 23.7296 12.9434 23.7296C6.98638 23.7296 2.15723 18.9004 2.15723 12.9434C2.15723 6.98638 6.98638 2.15723 12.9434 2.15723ZM14.022 14.022H11.8648C9.19444 14.022 6.90189 15.6393 5.91309 17.9479C7.47762 20.1418 10.0434 21.5723 12.9434 21.5723C15.8433 21.5723 18.4091 20.1418 19.9737 17.9478C18.9849 15.6393 16.6924 14.022 14.022 14.022ZM12.9434 5.39307C11.1563 5.39307 9.70752 6.84183 9.70752 8.62892C9.70752 10.416 11.1563 11.8648 12.9434 11.8648C14.7305 11.8648 16.1792 10.416 16.1792 8.62892C16.1792 6.84183 14.7305 5.39307 12.9434 5.39307Z" fill="#007AFF"/>
</svg>
