<svg width="22" height="22" viewBox="0 0 22 22" fill="none" xmlns="http://www.w3.org/2000/svg">
<path fill-rule="evenodd" clip-rule="evenodd" d="M10.6103 21.5709L10.7861 21.5723C10.548 21.5723 10.31 21.5645 10.0723 21.5491C9.77828 21.5298 9.48512 21.4986 9.1936 21.4555C8.85493 21.4054 8.51885 21.3391 8.18649 21.2569C7.85887 21.1759 7.53526 21.0794 7.21675 20.9677L7.21498 20.9671C6.69046 20.7831 6.18105 20.5586 5.69135 20.2956C5.3438 20.109 5.00676 19.9035 4.68177 19.6799C4.31629 19.4286 3.96662 19.1551 3.63472 18.8608C3.51875 18.7581 3.405 18.6528 3.29354 18.5452C1.26279 16.5837 0 13.8324 0 10.7861C0 4.82915 4.82915 1.18511e-10 10.7861 1.18511e-10C12.2026 -6.63955e-06 13.6052 0.27898 14.9138 0.821032C16.2225 1.36308 17.4115 2.15758 18.4131 3.15917C19.4147 4.16076 20.2092 5.34981 20.7513 6.65845C21.2933 7.96709 21.5723 9.36968 21.5723 10.7861C21.5723 13.8325 20.3094 16.5839 18.2786 18.5453C18.2786 18.5454 18.2786 18.5456 18.2786 18.5459C17.7678 19.039 17.2097 19.4808 16.6125 19.8649L16.6041 19.8702C16.4687 19.9572 16.3313 20.0411 16.1921 20.1219L16.1774 20.1305C15.9338 20.2712 15.6847 20.4025 15.4309 20.5238C15.3315 20.5712 15.2315 20.6171 15.1308 20.6615C15.0258 20.7077 14.9201 20.7523 14.8137 20.7953C14.7106 20.8367 14.6068 20.8766 14.5025 20.915C14.3971 20.9536 14.291 20.9906 14.1845 21.0261C14.0797 21.0607 13.9745 21.0938 13.8687 21.1254C13.7567 21.1587 13.6442 21.1902 13.5312 21.2199C13.4212 21.2487 13.3107 21.2758 13.1999 21.3012C13.0893 21.3265 12.9783 21.35 12.867 21.3718C12.4132 21.4605 11.9542 21.5198 11.4928 21.5495C11.3781 21.557 11.2634 21.5626 11.1485 21.5664L11.1463 21.5664C10.9677 21.5723 10.789 21.5738 10.6103 21.5709ZM11.8648 15.1006H9.70754C7.98936 15.1006 6.48666 16.1117 5.79586 17.59L5.71774 17.7691L5.78534 17.8191C7.01476 18.6948 8.48358 19.2563 10.0746 19.3862C10.1221 19.39 10.1696 19.3935 10.2173 19.3966L10.0811 19.3867C10.1275 19.3904 10.1739 19.3938 10.2205 19.3968L10.2173 19.3966C10.2635 19.3997 10.3096 19.4023 10.3559 19.4046L10.2205 19.3968C10.2685 19.4 10.3167 19.4027 10.365 19.405L10.3559 19.4046C10.3906 19.4063 10.4252 19.4077 10.4599 19.409L10.7861 19.4151L10.9214 19.4141C10.9711 19.4133 11.0208 19.4121 11.0705 19.4105L10.934 19.4138C10.98 19.4131 11.026 19.412 11.0718 19.4104L11.0705 19.4105C11.1168 19.409 11.1629 19.4072 11.209 19.4049L11.0718 19.4104C11.1193 19.4089 11.1668 19.4069 11.2143 19.4046L11.209 19.4049C11.257 19.4026 11.3048 19.3999 11.3526 19.3968L11.2143 19.4046C11.2611 19.4024 11.3078 19.3997 11.3544 19.3967L11.3526 19.3968C11.3993 19.3938 11.446 19.3904 11.4925 19.3866L11.3543 19.3967C11.4019 19.3936 11.4493 19.3901 11.4968 19.3863L11.4925 19.3866C11.5376 19.3829 11.5827 19.3789 11.6277 19.3746L11.4968 19.3863C11.544 19.3824 11.591 19.3782 11.638 19.3736L11.6277 19.3746C13.1655 19.2257 14.5852 18.6732 15.7796 17.8243L15.8535 17.7691L15.7765 17.5902C15.116 16.1762 13.7123 15.1894 12.0877 15.1063L11.8648 15.1006ZM10.7861 2.15725C6.02055 2.15725 2.15725 6.02055 2.15725 10.7861C2.15725 12.8441 2.87768 14.7339 4.0801 16.2168C5.19384 14.2615 7.29674 12.9434 9.70754 12.9434H11.8648C14.2757 12.9434 16.3786 14.2616 17.4921 16.2167C18.6946 14.7339 19.4151 12.8441 19.4151 10.7861C19.4151 6.02055 15.5518 2.15725 10.7861 2.15725ZM10.7861 3.23585C13.169 3.23585 15.1006 5.1675 15.1006 7.5503C15.1006 9.86089 13.2843 11.7473 11.0015 11.8595L10.7861 11.8648C8.40335 11.8648 6.4717 9.93314 6.4717 7.5503C6.4717 5.2397 8.28807 3.3533 10.5708 3.24111L10.7861 3.23585ZM10.7861 5.3931C9.59474 5.3931 8.62894 6.3589 8.62894 7.5503C8.62894 8.74169 9.59474 9.70754 10.7861 9.70754C11.9775 9.70754 12.9434 8.74169 12.9434 7.5503C12.9434 6.3589 11.9775 5.3931 10.7861 5.3931Z" fill="black"/>
</svg>
