<svg width="21" height="23" viewBox="0 0 21 23" fill="none" xmlns="http://www.w3.org/2000/svg">
<path d="M3.21622 4.13514C3.21622 3.03843 3.65188 1.98664 4.42737 1.21115C5.20286 0.435665 6.25465 0 7.35135 0C8.44806 0 9.49985 0.435665 10.2753 1.21115C11.0508 1.98664 11.4865 3.03843 11.4865 4.13514V10.6815C10.9974 10.8953 10.5349 11.1651 10.1081 11.4856V4.13514C10.1081 3.404 9.81767 2.70281 9.30067 2.18581C8.78368 1.66882 8.08249 1.37838 7.35135 1.37838C6.62021 1.37838 5.91902 1.66882 5.40203 2.18581C4.88504 2.70281 4.59459 3.404 4.59459 4.13514V11.4865C4.59451 11.8998 4.68735 12.3078 4.86624 12.6803C5.04513 13.0529 5.30549 13.3804 5.62807 13.6388C5.95065 13.8971 6.32718 14.0796 6.72982 14.1728C7.13245 14.266 7.55089 14.2675 7.95416 14.1771C7.7466 14.6394 7.59066 15.1232 7.48919 15.6198L7.35135 15.6216C6.25465 15.6216 5.20286 15.186 4.42737 14.4105C3.65188 13.635 3.21622 12.5832 3.21622 11.4865V4.13514ZM7.36605 17.4595H7.35135C5.76722 17.4595 4.24797 16.8302 3.12782 15.71C2.00767 14.5899 1.37838 13.0706 1.37838 11.4865V10.7973C1.37838 10.6145 1.30577 10.4392 1.17652 10.31C1.04727 10.1807 0.871974 10.1081 0.689189 10.1081C0.506405 10.1081 0.331107 10.1807 0.201859 10.31C0.0726107 10.4392 3.14401e-09 10.6145 3.144e-09 10.7973V11.4865C-5.34999e-05 13.3169 0.682759 15.0815 1.91488 16.4352C3.147 17.7888 4.8398 18.6341 6.66216 18.8057V21.3649C6.66216 21.5476 6.73477 21.7229 6.86402 21.8522C6.99327 21.9814 7.16857 22.0541 7.35135 22.0541C7.53414 22.0541 7.70943 21.9814 7.83868 21.8522C7.96793 21.7229 8.04054 21.5476 8.04054 21.3649V20.0076C7.65386 19.2095 7.42485 18.3443 7.36605 17.4595ZM14.2432 21.5946C13.0247 21.5946 11.856 21.1105 10.9944 20.2489C10.1327 19.3872 9.64865 18.2186 9.64865 17C9.64865 15.7814 10.1327 14.6128 10.9944 13.7511C11.856 12.8895 13.0247 12.4054 14.2432 12.4054C15.4618 12.4054 16.6305 12.8895 17.4921 13.7511C18.3538 14.6128 18.8378 15.7814 18.8378 17C18.8378 18.2186 18.3538 19.3872 17.4921 20.2489C16.6305 21.1105 15.4618 21.5946 14.2432 21.5946ZM14.2432 22.973C15.8274 22.973 17.3466 22.3437 18.4668 21.2235C19.5869 20.1034 20.2162 18.5841 20.2162 17C20.2162 15.4159 19.5869 13.8966 18.4668 12.7765C17.3466 11.6563 15.8274 11.027 14.2432 11.027C12.6591 11.027 11.1399 11.6563 10.0197 12.7765C8.89956 13.8966 8.27027 15.4159 8.27027 17C8.27027 18.5841 8.89956 20.1034 10.0197 21.2235C11.1399 22.3437 12.6591 22.973 14.2432 22.973ZM14.2432 20.2162C15.0962 20.2162 15.9143 19.8774 16.5175 19.2742C17.1206 18.6711 17.4595 17.853 17.4595 17C17.4595 16.147 17.1206 15.3289 16.5175 14.7258C15.9143 14.1226 15.0962 13.7838 14.2432 13.7838C13.3903 13.7838 12.5722 14.1226 11.969 14.7258C11.3659 15.3289 11.027 16.147 11.027 17C11.027 17.853 11.3659 18.6711 11.969 19.2742C12.5722 19.8774 13.3903 20.2162 14.2432 20.2162Z" fill="black"/>
</svg>
