<svg width="12" height="12" viewBox="0 0 12 12" fill="none" xmlns="http://www.w3.org/2000/svg">
<path d="M0.666748 2.66663V1.99996C0.666748 1.64634 0.807224 1.3072 1.05727 1.05715C1.30732 0.807102 1.64646 0.666626 2.00008 0.666626H3.33341M0.666748 9.33329V9.99996C0.666748 10.3536 0.807224 10.6927 1.05727 10.9428C1.30732 11.1928 1.64646 11.3333 2.00008 11.3333H3.33341M8.66675 0.666626H10.0001C10.3537 0.666626 10.6928 0.807102 10.9429 1.05715C11.1929 1.3072 11.3334 1.64634 11.3334 1.99996V2.66663M8.66675 11.3333H10.0001C10.3537 11.3333 10.6928 11.1928 10.9429 10.9428C11.1929 10.6927 11.3334 10.3536 11.3334 9.99996V9.33329M1.33341 5.99996H10.6667" stroke="black" stroke-width="1.33333" stroke-linecap="round" stroke-linejoin="round"/>
</svg>
