<svg width="22" height="22" viewBox="0 0 22 22" fill="none" xmlns="http://www.w3.org/2000/svg">
<path d="M8.89871 4.04482C7.29873 4.04482 5.73468 4.51926 4.40435 5.40816C3.07402 6.29706 2.03716 7.56049 1.42487 9.03867C0.812587 10.5169 0.652386 12.1434 0.964525 13.7126C1.27667 15.2819 2.04713 16.7233 3.17848 17.8547C4.30983 18.986 5.75127 19.7565 7.3205 20.0686C8.88973 20.3808 10.5163 20.2206 11.9945 19.6083C13.4727 18.996 14.7361 17.9591 15.625 16.6288C16.5139 15.2985 16.9883 13.7344 16.9883 12.1344H8.89871V4.04482Z" stroke="rgba(0, 0, 0, 0.4)" stroke-width="1.61792" stroke-linecap="round" stroke-linejoin="round"/>
<path d="M12.1345 8.89858H20.2241C20.2241 6.75308 19.3718 4.69545 17.8547 3.17835C16.3376 1.66126 14.28 0.80896 12.1345 0.80896V8.89858Z" stroke="rgba(0, 0, 0, 0.4)" stroke-width="1.61792" stroke-linecap="round" stroke-linejoin="round"/>
</svg>
