<svg width="21" height="21" viewBox="0 0 21 21" fill="none" xmlns="http://www.w3.org/2000/svg">
<path d="M12.9435 8.98081C12.6002 8.98081 12.271 8.84445 12.0283 8.60171C11.7855 8.35897 11.6492 8.02975 11.6492 7.68647V1.21478C11.6492 0.500303 12.2316 -0.0886218 12.9396 0.0110423C14.8775 0.289552 16.673 1.18826 18.0574 2.57262C19.4417 3.95697 20.3404 5.75249 20.6189 7.69036C20.7199 8.39836 20.1297 8.98081 19.4152 8.98081H12.9435Z" fill="#007AFF"/>
<path d="M7.76992 2.59972C8.47792 2.50135 9.06037 3.09027 9.06037 3.80345V10.2752C9.06037 10.6184 9.19674 10.9476 9.43948 11.1904C9.68221 11.4331 10.0114 11.5695 10.3547 11.5695H16.8264C17.5409 11.5695 18.1311 12.1519 18.0301 12.8599C17.7025 15.1267 16.5287 17.1853 14.7448 18.6217C12.9609 20.0581 10.6992 20.7658 8.41476 20.6023C6.13028 20.4387 3.99246 19.4163 2.4313 17.7404C0.870138 16.0646 0.00146218 13.8598 1.7228e-07 11.5695C-0.00042468 9.3898 0.784945 7.28302 2.21208 5.6355C3.63922 3.98798 5.61245 2.91017 7.76992 2.59972Z" fill="#007AFF"/>
</svg>
