<svg width="22" height="22" viewBox="0 0 22 22" fill="none" xmlns="http://www.w3.org/2000/svg">
<path d="M3.96004 2.54504L8.61504 7.19904C9.33016 6.75032 10.1573 6.51229 11.0015 6.51229C11.8458 6.51229 12.6729 6.75032 13.388 7.19904L18.04 2.54704C16.0636 0.901231 13.573 0 11.001 0C8.4291 0 5.93846 0.901231 3.96204 2.54704M19.454 3.95904L14.8 8.61404C15.2486 9.32905 15.4865 10.156 15.4865 11C15.4865 11.8441 15.2486 12.671 14.8 13.386L19.453 18.039C21.0989 16.0626 22.0001 13.572 22.0001 11C22.0001 8.4281 21.0989 5.93746 19.453 3.96104M18.04 19.453L13.387 14.799C12.6719 15.2478 11.8448 15.4858 11.0005 15.4858C10.1563 15.4858 9.32916 15.2478 8.61404 14.799L3.96004 19.454C5.93653 21.1001 8.42737 22.0015 10.9995 22.0015C13.5717 22.0015 16.0626 21.1001 18.039 19.454M2.54704 18.039L7.20004 13.384C6.75152 12.669 6.51361 11.8421 6.51361 10.998C6.51361 10.154 6.75152 9.32705 7.20004 8.61204L2.54704 3.95904C0.901231 5.93546 0 8.4261 0 10.998C0 13.57 0.901231 16.0606 2.54704 18.037" fill="#E98F14"/>
</svg>
