<svg width="20" height="20" viewBox="0 0 20 20" fill="none" xmlns="http://www.w3.org/2000/svg">
<path d="M16.9073 17.6213L17.4962 17.0324L15.5159 15.051V12.1129H14.6854V15.3983L16.9073 17.6213ZM1.74196 17.2579C1.26018 17.2579 0.84923 17.0882 0.509107 16.7487C0.169702 16.4093 0 15.9984 0 15.5159V1.74196C0 1.26018 0.169702 0.84923 0.509107 0.509107C0.848511 0.169702 1.25982 0 1.74304 0H15.5159C15.9977 0 16.4086 0.169702 16.7487 0.509107C17.0882 0.848511 17.2579 1.25982 17.2579 1.74304V8.16081C17.0687 8.09537 16.8875 8.04216 16.7142 8.00117C16.5417 7.96091 16.3633 7.92064 16.1792 7.88037V1.74304C16.1792 1.57694 16.1102 1.42449 15.9721 1.28571C15.8341 1.14693 15.6816 1.0779 15.5148 1.07862H1.74304C1.57694 1.07862 1.42449 1.14765 1.28571 1.28571C1.14693 1.42377 1.0779 1.57622 1.07862 1.74304V15.5159C1.07862 15.6813 1.14765 15.8334 1.28571 15.9721C1.42377 16.1109 1.57586 16.18 1.74196 16.1792H7.8534C7.87929 16.3806 7.91273 16.5679 7.95371 16.7412C7.9947 16.9138 8.04755 17.086 8.11227 17.2579H1.74196ZM1.07862 15.1006V16.1792V1.07862V7.88037V7.79947V15.1006ZM3.77516 13.2346H8.04648C8.08603 13.0498 8.13996 12.8711 8.20827 12.6985L8.42399 12.1549H3.77516V13.2346ZM3.77516 9.16824H10.8724C11.227 8.91944 11.5761 8.70875 11.9198 8.53617C12.2635 8.36287 12.6324 8.22696 13.0264 8.12845V8.08962H3.77516V9.16824ZM3.77516 5.10185H13.4827V4.02324H3.77516V5.10185ZM15.1006 19.5413C13.899 19.5413 12.8798 19.1224 12.0427 18.2847C11.205 17.447 10.7862 16.4273 10.7862 15.2257C10.7862 14.0242 11.205 13.0045 12.0427 12.1668C12.8805 11.3291 13.8998 10.9106 15.1006 10.9113C16.3015 10.912 17.3211 11.3305 18.1596 12.1668C18.998 13.0031 19.4165 14.0227 19.4151 15.2257C19.4151 16.4266 18.9966 17.4459 18.1596 18.2836C17.3211 19.1213 16.3015 19.5402 15.1006 19.5402" fill="rgba(0, 0, 0, 0.4)"/>
</svg>
