<svg width="17" height="17" viewBox="0 0 17 17" fill="none" xmlns="http://www.w3.org/2000/svg">
<path fill-rule="evenodd" clip-rule="evenodd" d="M9.38542 0H10.0938C11.0007 0 11.8988 0.178635 12.7367 0.525707C13.5746 0.872779 14.3359 1.38149 14.9772 2.02279C15.6185 2.6641 16.1272 3.42544 16.4743 4.26334C16.8214 5.10125 17 5.99931 17 6.90625V7.61458H9.38542V0ZM1.77083 10.0938C1.77057 8.8851 2.19662 7.71509 2.974 6.78962C3.75139 5.86414 4.83029 5.24251 6.02083 5.03412V10.9792H11.9659C11.7457 12.2464 11.0581 13.3848 10.0389 14.1694C9.01975 14.954 7.74328 15.3276 6.46192 15.2163C5.18056 15.105 3.9876 14.517 3.11896 13.5684C2.25032 12.6199 1.76923 11.3799 1.77083 10.0938ZM6.90625 3.1875C3.09187 3.1875 0 6.27937 0 10.0938C0 13.9081 3.09187 17 6.90625 17C10.7206 17 13.8125 13.9081 13.8125 10.0938V9.20833H7.79167V3.1875H6.90625Z" fill="white"/>
</svg>
