<svg width="13" height="9" viewBox="0 0 13 9" fill="none" xmlns="http://www.w3.org/2000/svg">
<path d="M0.5 6.83333V1.83333C0.5 1.47971 0.640476 1.14057 0.890524 0.890524C1.14057 0.640476 1.47971 0.5 1.83333 0.5H7.5C7.85362 0.5 8.19276 0.640476 8.44281 0.890524C8.69286 1.14057 8.83333 1.47971 8.83333 1.83333V6.83333C8.83333 7.18695 8.69286 7.52609 8.44281 7.77614C8.19276 8.02619 7.85362 8.16667 7.5 8.16667H1.83333C1.47971 8.16667 1.14057 8.02619 0.890524 7.77614C0.640476 7.52609 0.5 7.18695 0.5 6.83333ZM11.9453 0.994L9.27867 3.36933C9.24352 3.40054 9.21537 3.43883 9.19607 3.48169C9.17677 3.52454 9.16675 3.571 9.16667 3.618V4.80333C9.16675 4.85034 9.17677 4.89679 9.19607 4.93964C9.21537 4.9825 9.24352 5.02079 9.27867 5.052L11.9453 7.42733C11.9934 7.47 12.0527 7.49787 12.1162 7.50759C12.1798 7.51731 12.2447 7.50846 12.3033 7.48212C12.3619 7.45577 12.4117 7.41305 12.4466 7.3591C12.4815 7.30514 12.5 7.24225 12.5 7.178V1.24333C12.5 1.17908 12.4815 1.11619 12.4466 1.06224C12.4117 1.00828 12.3619 0.96556 12.3033 0.939216C12.2447 0.912872 12.1798 0.904027 12.1162 0.913746C12.0527 0.923466 11.9934 0.951336 11.9453 0.994Z" stroke="black" stroke-linecap="round" stroke-linejoin="round"/>
</svg>
